<svg xmlns="http://www.w3.org/2000/svg" viewBox="0 0 216.55 14.83"><defs><style>.cls-1{fill:#fff;}.cls-2{fill:#f1ea35;}.cls-3{fill:#00ad5e;}</style></defs><title>Asset 2</title><g id="Layer_2" data-name="Layer 2"><g id="Слой_1" data-name="Слой 1"><path class="cls-1" d="M0,.21H3.4l4.51,12,4.43-12h3.4V14.62H13.68V2.14h0L8.88,14.62h-2L2.1,2.14h0V14.62H0Z"/><path class="cls-2" d="M31.35,2.18a7.84,7.84,0,0,1,1.77,5.23,8,8,0,0,1-1.77,5.25,6.5,6.5,0,0,1-5.15,2.16,6.51,6.51,0,0,1-5.15-2.16,8,8,0,0,1-1.77-5.25,7.84,7.84,0,0,1,1.77-5.23A6.45,6.45,0,0,1,26.2,0,6.45,6.45,0,0,1,31.35,2.18Z"/><path class="cls-1" d="M36.55.21h2.8l6.34,11.62h0V.21h2.06V14.62H45.15L38.65,2.76h0V14.62H36.55Z"/><path class="cls-1" d="M58.48,2.41a6.42,6.42,0,0,0-2.7-.6,3.57,3.57,0,0,0-1.65.35,1.64,1.64,0,0,0-.86,1.54,1.57,1.57,0,0,0,.45,1.13,6,6,0,0,0,2.06,1.28l.54.27A5.69,5.69,0,0,1,58.81,8.3a4.11,4.11,0,0,1,.64,2.31,3.77,3.77,0,0,1-1.4,3.11,5.36,5.36,0,0,1-3.65,1.11,9.17,9.17,0,0,1-3.15-.6l.21-1.9a8,8,0,0,0,3,.68,2.94,2.94,0,0,0,2.1-.72,2.08,2.08,0,0,0,.72-1.63A2,2,0,0,0,56.51,9,10.83,10.83,0,0,0,54.57,8l-.89-.45a5.55,5.55,0,0,1-2-1.57,3.53,3.53,0,0,1-.58-2,3.53,3.53,0,0,1,1.52-3A5.68,5.68,0,0,1,55.7,0a9,9,0,0,1,3.07.51Z"/><path class="cls-1" d="M65.39,2H60.92V.21h11V2H67.45V14.62H65.39Z"/><path class="cls-1" d="M74.37.21h3.52c1.34,0,3.09,0,4.26.91A3.34,3.34,0,0,1,83.47,4a3.12,3.12,0,0,1-.95,2.41,3.6,3.6,0,0,1-2,1v0a2.11,2.11,0,0,1,.78.49,5.36,5.36,0,0,1,.62.95l2.72,5.75H82.28l-2.2-5a2.33,2.33,0,0,0-.95-1.17,3.15,3.15,0,0,0-1.46-.23H76.43v6.41H74.37Zm2.06,6.2h1.75a3.71,3.71,0,0,0,2.41-.7,2,2,0,0,0,.7-1.54,1.87,1.87,0,0,0-.95-1.75A4.34,4.34,0,0,0,78.41,2h-2Z"/><path class="cls-2" d="M98.7,2.18a7.84,7.84,0,0,1,1.77,5.23,8,8,0,0,1-1.77,5.25,7.21,7.21,0,0,1-10.3,0,8,8,0,0,1-1.77-5.25A7.84,7.84,0,0,1,88.4,2.18a7.16,7.16,0,0,1,10.3,0Z"/><path class="cls-1" d="M104,.21h3.4l4.51,12,4.43-12h3.4V14.62h-2.06V2.14h0l-4.76,12.48h-2L106.11,2.14h0V14.62H104Z"/><path class="cls-2" d="M135.37,2.18a7.84,7.84,0,0,1,1.77,5.23,8,8,0,0,1-1.77,5.25,7.21,7.21,0,0,1-10.3,0,8,8,0,0,1-1.77-5.25,7.84,7.84,0,0,1,1.77-5.23,7.16,7.16,0,0,1,10.3,0Z"/><path class="cls-1" d="M140.46.21H144c1.34,0,3.09,0,4.26.91A3.34,3.34,0,0,1,149.56,4a3.12,3.12,0,0,1-.95,2.41,3.6,3.6,0,0,1-2,1v0a2.11,2.11,0,0,1,.78.49,5.36,5.36,0,0,1,.62.95l2.72,5.75h-2.35l-2.2-5a2.33,2.33,0,0,0-.95-1.17,3.15,3.15,0,0,0-1.46-.23h-1.24v6.41h-2.06Zm2.06,6.2h1.75a3.71,3.71,0,0,0,2.41-.7,2,2,0,0,0,.7-1.54,1.87,1.87,0,0,0-.95-1.75A4.34,4.34,0,0,0,144.49,2h-2Z"/><path class="cls-1" d="M153.56.21h3.77a6.56,6.56,0,0,1,4,1.05,3.81,3.81,0,0,1,1.44,3.21,4.35,4.35,0,0,1-1,2.86,5.16,5.16,0,0,1-4.12,1.52h-2v5.77h-2.06ZM155.62,7h2a3.4,3.4,0,0,0,2.18-.72,2.37,2.37,0,0,0,.7-1.77,2.28,2.28,0,0,0-.93-1.94,4,4,0,0,0-2.24-.6h-1.75Z"/><path class="cls-1" d="M165.75.21h2.06v6h6.88v-6h2.06V14.62h-2.06V8.05h-6.88v6.57h-2.06Z"/><path class="cls-2" d="M192.37,2.18a7.84,7.84,0,0,1,1.77,5.23,8,8,0,0,1-1.77,5.25,7.21,7.21,0,0,1-10.3,0,8,8,0,0,1-1.77-5.25,7.84,7.84,0,0,1,1.77-5.23,7.16,7.16,0,0,1,10.3,0Z"/><path class="cls-1" d="M204.11,2.41a6.42,6.42,0,0,0-2.7-.6,3.57,3.57,0,0,0-1.65.35,1.64,1.64,0,0,0-.86,1.54,1.57,1.57,0,0,0,.45,1.13,6,6,0,0,0,2.06,1.28l.54.27a5.69,5.69,0,0,1,2.49,1.92,4.11,4.11,0,0,1,.64,2.31,3.77,3.77,0,0,1-1.4,3.11A5.36,5.36,0,0,1,200,14.83a9.17,9.17,0,0,1-3.15-.6l.21-1.9a8,8,0,0,0,3,.68,2.94,2.94,0,0,0,2.1-.72,2.08,2.08,0,0,0,.72-1.63A2,2,0,0,0,202.13,9,10.83,10.83,0,0,0,200.2,8l-.89-.45a5.55,5.55,0,0,1-2-1.57,3.53,3.53,0,0,1-.58-2,3.53,3.53,0,0,1,1.52-3A5.68,5.68,0,0,1,201.33,0a9,9,0,0,1,3.07.51Z"/><path class="cls-1" d="M208.5.21h8.05V2h-6V6.24H216V8.05h-5.46v4.76h6v1.81H208.5Z"/><path class="cls-3" d="M23.06,6.16a5.15,5.15,0,0,0-.93,3,5.14,5.14,0,0,0,.93,3,3.22,3.22,0,0,0,2.7,1.26,3.22,3.22,0,0,0,2.7-1.26,5.14,5.14,0,0,0,.93-3,5.15,5.15,0,0,0-.93-3,3.51,3.51,0,0,0-5.39,0Z"/><path d="M24.57,7.86a2.36,2.36,0,0,0,0,2.65,1.54,1.54,0,0,0,2.36,0,2.36,2.36,0,0,0,0-2.65,1.54,1.54,0,0,0-2.36,0Z"/><path class="cls-3" d="M88.88,3a5.15,5.15,0,0,0-.93,3,5.14,5.14,0,0,0,.93,3,3.51,3.51,0,0,0,5.39,0,5.14,5.14,0,0,0,.93-3,5.15,5.15,0,0,0-.93-3,3.51,3.51,0,0,0-5.39,0Z"/><path d="M90.39,4.69A2.26,2.26,0,0,0,90,6a2.25,2.25,0,0,0,.41,1.32,1.54,1.54,0,0,0,2.36,0A2.25,2.25,0,0,0,93.16,6a2.26,2.26,0,0,0-.41-1.32,1.54,1.54,0,0,0-2.36,0Z"/><path class="cls-3" d="M128.55,6.16a5.15,5.15,0,0,0-.93,3,5.14,5.14,0,0,0,.93,3,3.51,3.51,0,0,0,5.39,0,5.14,5.14,0,0,0,.93-3,5.15,5.15,0,0,0-.93-3,3.51,3.51,0,0,0-5.39,0Z"/><path d="M130.07,7.86a2.36,2.36,0,0,0,0,2.65,1.54,1.54,0,0,0,2.36,0,2.36,2.36,0,0,0,0-2.65,1.54,1.54,0,0,0-2.36,0Z"/><path class="cls-3" d="M184.56,4.34a5.15,5.15,0,0,0-.93,3,5.14,5.14,0,0,0,.93,3,3.51,3.51,0,0,0,5.39,0,5.14,5.14,0,0,0,.93-3,5.15,5.15,0,0,0-.93-3,3.51,3.51,0,0,0-5.39,0Z"/><path d="M186.08,6a2.36,2.36,0,0,0,0,2.65,1.54,1.54,0,0,0,2.36,0,2.36,2.36,0,0,0,0-2.65,1.54,1.54,0,0,0-2.36,0Z"/></g></g></svg>